<svg width="100%" height="100%" viewBox="0 0 1200 1200" fill="none" xmlns="http://www.w3.org/2000/svg">
  <mask id="mask0_1481_14006" style="mask-type:alpha" maskUnits="userSpaceOnUse" x="0" y="0" width="1200" height="600">
    <rect width="1200" height="600" fill="#171717" />
  </mask>
  <g mask="url(#mask0_1481_14006)">
    <mask id="mask1_1481_14006" style="mask-type:alpha" maskUnits="userSpaceOnUse" x="-1" y="-18" width="1202"
      height="1218">
      <line x1="-1" y1="51" x2="1201" y2="51" stroke="white" stroke-width="18" />
      <line x1="-1" y1="111" x2="1201" y2="111" stroke="white" stroke-width="18" />
      <line x1="-1" y1="171" x2="1201" y2="171" stroke="white" stroke-width="18" />
      <line x1="-1" y1="231" x2="1201" y2="231" stroke="white" stroke-width="18" />
      <line x1="-1" y1="291" x2="1201" y2="291" stroke="white" stroke-width="18" />
      <line x1="-1" y1="351" x2="1201" y2="351" stroke="white" stroke-width="18" />
      <line x1="-1" y1="411" x2="1201" y2="411" stroke="white" stroke-width="18" />
      <line x1="-1" y1="471" x2="1201" y2="471" stroke="white" stroke-width="18" />
      <line x1="-1" y1="531" x2="1201" y2="531" stroke="white" stroke-width="18" />
      <line x1="-1" y1="591" x2="1201" y2="591" stroke="white" stroke-width="18" />
    </mask>
    <g mask="url(#mask1_1481_14006)">
      <circle cx="600" cy="600" r="500" fill="#F8BD1C" />
      <circle cx="600" cy="600" r="500" fill="url(#paint0_linear_1481_14006)" />
    </g>
  </g>
  <mask id="mask2_1481_14006" style="mask-type:alpha" maskUnits="userSpaceOnUse" x="100" y="100" width="1000"
    height="1000">
    <circle cx="600" cy="600" r="500" fill="#D9D9D9" />
  </mask>
  <g mask="url(#mask2_1481_14006)">
    <rect y="600" width="1200" height="600" fill="url(#paint1_radial_1481_14006)" />
    <rect y="600" width="1200" height="600" fill="url(#paint2_radial_1481_14006)" />
    <path d="M0 600H1200V1200H0V600Z" fill="url(#paint3_radial_1481_14006)" />
  </g>
  <mask id="mask3_1481_14006" style="mask-type:alpha" maskUnits="userSpaceOnUse" x="0" y="600" width="1200"
    height="600">
    <rect y="600" width="1200" height="600" fill="url(#paint4_radial_1481_14006)" />
  </mask>
  <g mask="url(#mask3_1481_14006)">
    <g opacity="0.1">
      <mask id="mask4_1481_14006" style="mask-type:alpha" maskUnits="userSpaceOnUse" x="-1" y="-18" width="1202"
        height="1218">
        <line x1="-1" y1="651" x2="1201" y2="651" stroke="white" stroke-width="18" />
        <line x1="-1" y1="711" x2="1201" y2="711" stroke="white" stroke-width="18" />
        <line x1="-1" y1="771" x2="1201" y2="771" stroke="white" stroke-width="18" />
        <line x1="-1" y1="831" x2="1201" y2="831" stroke="white" stroke-width="18" />
        <line x1="-1" y1="891" x2="1201" y2="891" stroke="white" stroke-width="18" />
        <line x1="-1" y1="951" x2="1201" y2="951" stroke="white" stroke-width="18" />
        <line x1="-1" y1="1011" x2="1201" y2="1011" stroke="white" stroke-width="18" />
        <line x1="-1" y1="1071" x2="1201" y2="1071" stroke="white" stroke-width="18" />
        <line x1="-1" y1="1131" x2="1201" y2="1131" stroke="white" stroke-width="18" />
        <line x1="-1" y1="1191" x2="1201" y2="1191" stroke="white" stroke-width="18" />
      </mask>
      <g mask="url(#mask4_1481_14006)">
        <circle cx="600" cy="600" r="500" fill="#F8BD1C" />
        <circle cx="600" cy="600" r="500" fill="url(#paint5_linear_1481_14006)" />
      </g>
    </g>
  </g>
  <defs>
    <linearGradient id="paint0_linear_1481_14006" x1="1100" y1="1100" x2="100" y2="100" gradientUnits="userSpaceOnUse">
      <stop offset="0.244298" stop-color="#FF5751" />
      <stop offset="1" stop-color="#FF5751" stop-opacity="0" />
    </linearGradient>
    <radialGradient id="paint1_radial_1481_14006" cx="0" cy="0" r="1" gradientUnits="userSpaceOnUse"
      gradientTransform="translate(600 600) rotate(90) scale(600 1200)">
      <stop stop-color="#0A0A0A" />
      <stop offset="0.603518" stop-color="#0A0A0A" stop-opacity="0" />
    </radialGradient>
    <radialGradient id="paint2_radial_1481_14006" cx="0" cy="0" r="1" gradientUnits="userSpaceOnUse"
      gradientTransform="translate(600 600) rotate(90) scale(600 1200)">
      <stop stop-color="#F8BD1C" stop-opacity="0.06" />
      <stop offset="0.305646" stop-color="#0A0A0A" stop-opacity="0" />
      <stop offset="1" stop-color="#0A0A0A" stop-opacity="0" />
    </radialGradient>
    <radialGradient id="paint3_radial_1481_14006" cx="0" cy="0" r="1" gradientUnits="userSpaceOnUse"
      gradientTransform="translate(619.5 600) rotate(91.8615) scale(600.317 1200.63)">
      <stop offset="0.0335959" stop-color="#FF5751" stop-opacity="0.15" />
      <stop offset="0.7" stop-color="#0A0A0A" stop-opacity="0" />
      <stop offset="1" stop-color="#0A0A0A" stop-opacity="0" />
    </radialGradient>
    <radialGradient id="paint4_radial_1481_14006" cx="0" cy="0" r="1" gradientUnits="userSpaceOnUse"
      gradientTransform="translate(600 600) rotate(90) scale(600 1200)">
      <stop stop-color="#0A0A0A" />
      <stop offset="0.281798" stop-color="#0A0A0A" stop-opacity="0" />
    </radialGradient>
    <linearGradient id="paint5_linear_1481_14006" x1="1100" y1="1100" x2="100" y2="100" gradientUnits="userSpaceOnUse">
      <stop offset="0.244298" stop-color="#FF5751" />
      <stop offset="1" stop-color="#FF5751" stop-opacity="0" />
    </linearGradient>
  </defs>
</svg>