<svg width="100%" height="100%" viewBox="0 0 956 1583"
    style="fill-rule:evenodd;clip-rule:evenodd;stroke-linejoin:round;stroke-miterlimit:2;">
    <g transform="matrix(1,0,0,1,-1022,-708.647)">
        <g transform="matrix(18.4413,0,0,18.4413,-868.296,-2154.94)">
            <g transform="matrix(6.12323e-17,1,-1.08,6.61309e-17,353.573,57.4129)">
                <rect x="97.868" y="184.472" width="14.4" height="48" style="fill-rule:nonzero;" />
            </g>
            <g transform="matrix(1,0,0,1,6.56696,27.5131)">
                <g transform="matrix(96,0,0,96,90.6565,212.248)">
                    <path
                        d="M0.325,0.014C0.479,0.014 0.595,-0.076 0.595,-0.226L0.595,-0.7L0.435,-0.7L0.435,-0.24C0.435,-0.187 0.41,-0.142 0.325,-0.142C0.24,-0.142 0.215,-0.187 0.215,-0.24L0.215,-0.7L0.055,-0.7L0.055,-0.226C0.055,-0.076 0.171,0.014 0.325,0.014Z"
                        style="fill-rule:nonzero;" />
                </g>
            </g>
        </g>
    </g>
</svg>