<svg width="100%" height="100%" viewBox="0 0 437 158">
    <title>Underliner studio</title>
    <g transform="matrix(1,0,0,1,-1221.65,-731.376)">
        <g transform="matrix(1,0,0,1,1036.06,659.752)">
            <g transform="matrix(1,0,0,1,92.5356,-56.1445)">
                <g transform="matrix(96,0,0,96,90.6565,212.248)">
                    <path
                        d="M0.325,0.014C0.479,0.014 0.595,-0.076 0.595,-0.226L0.595,-0.7L0.435,-0.7L0.435,-0.24C0.435,-0.187 0.41,-0.142 0.325,-0.142C0.24,-0.142 0.215,-0.187 0.215,-0.24L0.215,-0.7L0.055,-0.7L0.055,-0.226C0.055,-0.076 0.171,0.014 0.325,0.014Z" />
                </g>
                <g transform="matrix(96,0,0,96,150.177,212.248)">
                    <path
                        d="M0.348,-0.514C0.282,-0.514 0.232,-0.49 0.205,-0.453L0.205,-0.5L0.055,-0.5L0.055,-0L0.205,-0L0.205,-0.273C0.205,-0.344 0.243,-0.376 0.298,-0.376C0.346,-0.376 0.385,-0.347 0.385,-0.285L0.385,-0L0.535,-0L0.535,-0.307C0.535,-0.442 0.449,-0.514 0.348,-0.514Z" />
                </g>
                <g transform="matrix(96,0,0,96,203.265,212.248)">
                    <path
                        d="M0.418,-0.7L0.418,-0.453C0.385,-0.491 0.336,-0.514 0.269,-0.514C0.138,-0.514 0.03,-0.399 0.03,-0.25C0.03,-0.101 0.138,0.014 0.269,0.014C0.336,0.014 0.385,-0.009 0.418,-0.047L0.418,-0L0.568,-0L0.568,-0.7L0.418,-0.7ZM0.299,-0.128C0.23,-0.128 0.18,-0.175 0.18,-0.25C0.18,-0.325 0.23,-0.372 0.299,-0.372C0.368,-0.372 0.418,-0.325 0.418,-0.25C0.418,-0.175 0.368,-0.128 0.299,-0.128Z" />
                </g>
                <g transform="matrix(96,0,0,96,260.193,212.248)">
                    <path
                        d="M0.189,-0.19L0.544,-0.19C0.548,-0.209 0.55,-0.229 0.55,-0.25C0.55,-0.401 0.442,-0.514 0.296,-0.514C0.138,-0.514 0.03,-0.399 0.03,-0.25C0.03,-0.101 0.136,0.014 0.307,0.014C0.402,0.014 0.476,-0.021 0.525,-0.089L0.405,-0.158C0.385,-0.136 0.35,-0.12 0.309,-0.12C0.254,-0.12 0.208,-0.138 0.189,-0.19ZM0.186,-0.302C0.2,-0.353 0.238,-0.381 0.295,-0.381C0.34,-0.381 0.385,-0.36 0.401,-0.302L0.186,-0.302Z" />
                </g>
                <g transform="matrix(96,0,0,96,312.993,212.248)">
                    <path
                        d="M0.205,-0.411L0.205,-0.5L0.055,-0.5L0.055,-0L0.205,-0L0.205,-0.226C0.205,-0.325 0.293,-0.35 0.355,-0.34L0.355,-0.51C0.292,-0.51 0.225,-0.478 0.205,-0.411Z" />
                </g>
                <g transform="matrix(96,0,0,96,345.633,212.248)">
                    <rect x="0.055" y="-0.73" width="0.15" height="0.73" />
                </g>
                <g transform="matrix(96,0,0,96,367.713,212.248)">
                    <path
                        d="M0.13,-0.544C0.179,-0.544 0.22,-0.585 0.22,-0.634C0.22,-0.683 0.179,-0.724 0.13,-0.724C0.081,-0.724 0.04,-0.683 0.04,-0.634C0.04,-0.585 0.081,-0.544 0.13,-0.544ZM0.055,-0L0.205,-0L0.205,-0.5L0.055,-0.5L0.055,-0Z" />
                </g>
                <g transform="matrix(96,0,0,96,389.793,212.248)">
                    <path
                        d="M0.348,-0.514C0.282,-0.514 0.232,-0.49 0.205,-0.453L0.205,-0.5L0.055,-0.5L0.055,-0L0.205,-0L0.205,-0.273C0.205,-0.344 0.243,-0.376 0.298,-0.376C0.346,-0.376 0.385,-0.347 0.385,-0.285L0.385,-0L0.535,-0L0.535,-0.307C0.535,-0.442 0.449,-0.514 0.348,-0.514Z" />
                </g>
                <g transform="matrix(96,0,0,96,442.881,212.248)">
                    <path
                        d="M0.189,-0.19L0.544,-0.19C0.548,-0.209 0.55,-0.229 0.55,-0.25C0.55,-0.401 0.442,-0.514 0.296,-0.514C0.138,-0.514 0.03,-0.399 0.03,-0.25C0.03,-0.101 0.136,0.014 0.307,0.014C0.402,0.014 0.476,-0.021 0.525,-0.089L0.405,-0.158C0.385,-0.136 0.35,-0.12 0.309,-0.12C0.254,-0.12 0.208,-0.138 0.189,-0.19ZM0.186,-0.302C0.2,-0.353 0.238,-0.381 0.295,-0.381C0.34,-0.381 0.385,-0.36 0.401,-0.302L0.186,-0.302Z" />
                </g>
                <g transform="matrix(96,0,0,96,495.681,212.248)">
                    <path
                        d="M0.205,-0.411L0.205,-0.5L0.055,-0.5L0.055,-0L0.205,-0L0.205,-0.226C0.205,-0.325 0.293,-0.35 0.355,-0.34L0.355,-0.51C0.292,-0.51 0.225,-0.478 0.205,-0.411Z" />
                </g>
            </g>
            <g transform="matrix(1,0,0,1,92.5356,15.2795)">
                <g transform="matrix(96,0,0,96,90.6565,212.248)">
                    <path
                        d="M0.305,0.014C0.457,0.014 0.565,-0.066 0.565,-0.201C0.565,-0.349 0.446,-0.386 0.34,-0.418C0.231,-0.451 0.214,-0.473 0.214,-0.505C0.214,-0.533 0.239,-0.558 0.289,-0.558C0.353,-0.558 0.386,-0.527 0.41,-0.477L0.545,-0.556C0.494,-0.659 0.404,-0.714 0.289,-0.714C0.168,-0.714 0.054,-0.636 0.054,-0.501C0.054,-0.367 0.156,-0.317 0.26,-0.288C0.365,-0.259 0.405,-0.242 0.405,-0.199C0.405,-0.172 0.386,-0.142 0.31,-0.142C0.231,-0.142 0.188,-0.181 0.163,-0.239L0.025,-0.159C0.064,-0.056 0.158,0.014 0.305,0.014Z" />
                </g>
                <g transform="matrix(96,0,0,96,142.497,212.248)">
                    <path
                        d="M0.348,-0.356L0.348,-0.5L0.245,-0.5L0.245,-0.64L0.095,-0.595L0.095,-0.5L0.015,-0.5L0.015,-0.356L0.095,-0.356L0.095,-0.179C0.095,-0.039 0.152,0.02 0.348,-0L0.348,-0.136C0.282,-0.132 0.245,-0.136 0.245,-0.179L0.245,-0.356L0.348,-0.356Z" />
                </g>
                <g transform="matrix(96,0,0,96,176.865,212.248)">
                    <path
                        d="M0.378,-0.5L0.378,-0.227C0.378,-0.156 0.34,-0.124 0.285,-0.124C0.237,-0.124 0.198,-0.153 0.198,-0.215L0.198,-0.5L0.048,-0.5L0.048,-0.193C0.048,-0.058 0.134,0.014 0.235,0.014C0.301,0.014 0.351,-0.01 0.378,-0.047L0.378,-0L0.528,-0L0.528,-0.5L0.378,-0.5Z" />
                </g>
                <g transform="matrix(96,0,0,96,229.953,212.248)">
                    <path
                        d="M0.418,-0.7L0.418,-0.453C0.385,-0.491 0.336,-0.514 0.269,-0.514C0.138,-0.514 0.03,-0.399 0.03,-0.25C0.03,-0.101 0.138,0.014 0.269,0.014C0.336,0.014 0.385,-0.009 0.418,-0.047L0.418,-0L0.568,-0L0.568,-0.7L0.418,-0.7ZM0.299,-0.128C0.23,-0.128 0.18,-0.175 0.18,-0.25C0.18,-0.325 0.23,-0.372 0.299,-0.372C0.368,-0.372 0.418,-0.325 0.418,-0.25C0.418,-0.175 0.368,-0.128 0.299,-0.128Z" />
                </g>
                <g transform="matrix(96,0,0,96,286.881,212.248)">
                    <path
                        d="M0.13,-0.544C0.179,-0.544 0.22,-0.585 0.22,-0.634C0.22,-0.683 0.179,-0.724 0.13,-0.724C0.081,-0.724 0.04,-0.683 0.04,-0.634C0.04,-0.585 0.081,-0.544 0.13,-0.544ZM0.055,-0L0.205,-0L0.205,-0.5L0.055,-0.5L0.055,-0Z" />
                </g>
                <g transform="matrix(96,0,0,96,308.961,212.248)">
                    <path
                        d="M0.295,0.014C0.442,0.014 0.56,-0.101 0.56,-0.25C0.56,-0.399 0.442,-0.514 0.295,-0.514C0.148,-0.514 0.03,-0.399 0.03,-0.25C0.03,-0.101 0.148,0.014 0.295,0.014ZM0.295,-0.132C0.23,-0.132 0.18,-0.179 0.18,-0.25C0.18,-0.321 0.23,-0.368 0.295,-0.368C0.36,-0.368 0.41,-0.321 0.41,-0.25C0.41,-0.179 0.36,-0.132 0.295,-0.132Z" />
                </g>
            </g>
            <g transform="matrix(6.12323e-17,1,-9.038,5.53418e-16,2289.55,-26.2447)">
                <rect x="97.868" y="184.472" width="14.4" height="48" style="fill:rgb(255,88,81);fill-rule:nonzero;" />
            </g>
        </g>
    </g>
</svg>