<svg xmlns="http://www.w3.org/2000/svg" version="1.1" xmlns:xlink="http://www.w3.org/1999/xlink" xmlns:svgjs="http://svgjs.com/svgjs" width="1000" height="1000"><rect width="1000" height="1000" rx="100" ry="100" fill="#262626"></rect><g transform="matrix(1,0,0,1,0,0)"><svg xmlns="http://www.w3.org/2000/svg" version="1.1" xmlns:xlink="http://www.w3.org/1999/xlink" xmlns:svgjs="http://svgjs.com/svgjs" width="100%" height="100%"><svg width="100%" height="100%" viewBox="0 0 3000 3000" version="1.1" xmlns="http://www.w3.org/2000/svg" xmlns:xlink="http://www.w3.org/1999/xlink" xml:space="preserve" xmlns:serif="http://www.serif.com/" style="fill-rule:evenodd;clip-rule:evenodd;stroke-linejoin:round;stroke-miterlimit:2;">
    <g transform="matrix(18.4413,0,0,18.4413,-868.296,-2154.94)">
        <g transform="matrix(6.12323e-17,1,-1.08,6.61309e-17,353.573,57.4129)">
            <rect x="97.868" y="184.472" width="14.4" height="48" style="fill:rgb(255,87,81);fill-rule:nonzero;"></rect>
        </g>
        <g transform="matrix(1,0,0,1,6.56696,27.5131)">
            <g transform="matrix(96,0,0,96,90.6565,212.248)">
                <path d="M0.325,0.014C0.479,0.014 0.595,-0.076 0.595,-0.226L0.595,-0.7L0.435,-0.7L0.435,-0.24C0.435,-0.187 0.41,-0.142 0.325,-0.142C0.24,-0.142 0.215,-0.187 0.215,-0.24L0.215,-0.7L0.055,-0.7L0.055,-0.226C0.055,-0.076 0.171,0.014 0.325,0.014Z" style="fill:rgb(235,235,235);fill-rule:nonzero;"></path>
            </g>
        </g>
    </g>
</svg></svg></g></svg>