<?xml version="1.0" standalone="no"?>
<!DOCTYPE svg PUBLIC "-//W3C//DTD SVG 20010904//EN"
 "http://www.w3.org/TR/2001/REC-SVG-20010904/DTD/svg10.dtd">
<svg version="1.0" xmlns="http://www.w3.org/2000/svg"
 width="700.000000pt" height="700.000000pt" viewBox="0 0 700.000000 700.000000"
 preserveAspectRatio="xMidYMid meet">
<metadata>
Created by potrace 1.14, written by Peter Selinger 2001-2017
</metadata>
<g transform="translate(0.000000,700.000000) scale(0.100000,-0.100000)"
fill="#000000" stroke="none">
<path d="M2389 5346 c-1 -1 -2 -139 -3 -308 -1 -202 2 -308 9 -309 5 0 504 -1
1108 -2 723 -1 1101 1 1106 8 6 8 8 580 2 606 -1 4 -2215 9 -2222 5z"/>
<path d="M2391 4595 c-8 -11 -6 -2052 2 -2100 45 -260 151 -449 336 -597 200
-160 459 -241 771 -241 237 0 410 38 596 130 279 137 455 380 510 703 4 25 8
508 8 1073 1 908 -1 1030 -14 1036 -11 5 -583 7 -635 2 -7 -1 -11 -306 -10
-963 0 -1037 -1 -1069 -51 -1155 -35 -60 -80 -101 -149 -134 -77 -37 -136 -47
-262 -47 -119 0 -167 9 -248 47 -106 50 -168 134 -190 256 -7 40 -10 386 -10
1028 1 863 -1 967 -15 968 -117 6 -633 2 -639 -6z"/>
</g>
</svg>
